<?xml version="1.0" encoding="utf-8"?>
<!-- Generator: Adobe Illustrator 16.0.0, SVG Export Plug-In . SVG Version: 6.00 Build 0)  -->
<!DOCTYPE svg PUBLIC "-//W3C//DTD SVG 1.1//EN" "http://www.w3.org/Graphics/SVG/1.1/DTD/svg11.dtd">
<svg version="1.1" id="Layer_1" xmlns="http://www.w3.org/2000/svg" xmlns:xlink="http://www.w3.org/1999/xlink" x="0px" y="0px"
	 width="262px" height="58.25px" viewBox="0 0 262 58.25" enable-background="new 0 0 262 58.25" xml:space="preserve">
<g>
	<g>
		<path fill="#FFFFFF" d="M23.56,51.551l-0.031-0.008l-0.031,0.01l-6.077,1.67l-0.106,0.031c1.543,1.094,3.244,2.141,5.123,3.113
			c0.342,0.178,0.716,0.266,1.091,0.266c0.375,0,0.75-0.088,1.092-0.266c1.878-0.973,3.579-2.02,5.121-3.113
			c-0.079-0.023-0.122-0.035-0.122-0.035L23.56,51.551z"/>
		<path fill="#FFFFFF" d="M43.327,6.856L24.159,1.584C23.953,1.528,23.742,1.5,23.529,1.5s-0.422,0.028-0.628,0.084L3.731,6.856
			c-1.03,0.283-1.743,1.22-1.743,2.287v3.131l21.541-5.942l21.541,5.888V9.143C45.07,8.076,44.358,7.139,43.327,6.856z"/>
		<path fill="#FFFFFF" d="M24.158,11.389c-0.206-0.058-0.417-0.086-0.628-0.086c-0.212,0.001-0.422,0.028-0.628,0.086l-10.268,2.823
			L1.987,17.026l0.001,8.428c-0.004,0.22-0.009,1.122,0.136,2.508c0.105,1.008,0.29,2.269,0.612,3.713l20.793-5.736v-0.001
			l16.212,4.459c-0.29,1.342-0.723,2.895-1.369,4.566l-14.215-3.908c-0.206-0.058-0.417-0.086-0.628-0.086
			c-0.212,0-0.422,0.028-0.628,0.086L4.082,36.231c0.083,0.222,0.167,0.448,0.257,0.674c0.456,1.159,1.022,2.411,1.723,3.718
			c0.725,1.352,1.592,2.763,2.637,4.188c0.971,1.327,2.093,2.669,3.387,3.989l11.444-3.148l11.444,3.148
			c1.294-1.32,2.418-2.662,3.388-3.989l-14.204-3.905c-0.206-0.057-0.417-0.086-0.628-0.086c-0.212,0.001-0.422,0.029-0.628,0.086
			l-9.281,2.553c-1.072-1.303-2.026-2.684-2.868-4.143l12.776-3.513l12.761,3.507l4.036,1.111v0.015l0.673,0.187
			c0.699-1.307,1.267-2.559,1.722-3.718c0.089-0.226,0.174-0.452,0.256-0.674c0.606-1.641,1.039-3.181,1.347-4.556
			c0.321-1.444,0.505-2.705,0.61-3.712c-0.001-0.002-0.001-0.002-0.001-0.002c0.04-0.39,0.068-0.736,0.09-1.044l-20.866-5.724
			c-0.206-0.059-0.417-0.086-0.628-0.086c-0.212,0-0.422,0.028-0.628,0.086L6.73,25.639c0-0.052,0-0.082,0-0.085
			c0.001-0.023,0.001-0.048,0.001-0.071v-4.714v-0.015l16.797-4.62l21.541,5.943v-5.015l-4.744-1.228L24.158,11.389z"/>
	</g>
	<path fill="#FFFFFF" d="M81.328,29.124c0,1.667-0.216,3.196-0.646,4.585c-0.431,1.391-1.049,2.585-1.855,3.585
		c-0.806,1.001-1.813,1.779-3.022,2.335c-1.209,0.555-2.578,0.833-4.106,0.833c-1.028,0-1.974-0.125-2.834-0.375
		c-0.862-0.25-1.57-0.527-2.126-0.834v8.462h-5.044V18.911c1.028-0.277,2.293-0.542,3.793-0.792s3.084-0.375,4.752-0.375
		c1.723,0,3.265,0.265,4.627,0.792c1.361,0.528,2.522,1.286,3.481,2.271c0.958,0.987,1.694,2.183,2.209,3.585
		C81.07,25.797,81.328,27.373,81.328,29.124z M76.159,29.207c0-2.251-0.507-4.001-1.521-5.252c-1.015-1.25-2.647-1.876-4.898-1.876
		c-0.473,0-0.966,0.021-1.48,0.062c-0.515,0.042-1.021,0.133-1.521,0.271v12.464c0.444,0.306,1.035,0.59,1.771,0.854
		c0.736,0.264,1.521,0.396,2.355,0.396c1.834,0,3.174-0.625,4.022-1.876C75.734,33.001,76.159,31.319,76.159,29.207z"/>
	<path fill="#FFFFFF" d="M93.791,17.661c1.667,0,3.07,0.208,4.21,0.625c1.139,0.417,2.049,1,2.73,1.751
		c0.681,0.75,1.167,1.66,1.459,2.73c0.292,1.069,0.438,2.244,0.438,3.521v13.215c-0.778,0.166-1.953,0.368-3.522,0.604
		c-1.57,0.236-3.342,0.354-5.314,0.354c-1.307,0-2.501-0.125-3.585-0.375s-2.008-0.652-2.772-1.209
		c-0.765-0.556-1.362-1.277-1.792-2.167c-0.431-0.89-0.646-1.987-0.646-3.293c0-1.251,0.243-2.307,0.729-3.169
		c0.486-0.86,1.146-1.562,1.98-2.104c0.833-0.542,1.799-0.931,2.897-1.167c1.098-0.236,2.244-0.354,3.439-0.354
		c0.556,0,1.139,0.035,1.751,0.104c0.611,0.069,1.264,0.188,1.959,0.354v-0.833c0-0.584-0.07-1.14-0.208-1.668
		c-0.139-0.527-0.382-0.993-0.729-1.396c-0.348-0.402-0.806-0.715-1.375-0.938c-0.57-0.222-1.286-0.333-2.147-0.333
		c-1.167,0-2.237,0.083-3.209,0.25c-0.973,0.166-1.765,0.361-2.376,0.583l-0.625-4.085c0.639-0.222,1.57-0.444,2.793-0.667
		C91.095,17.772,92.401,17.661,93.791,17.661z M94.208,36.461c1.556,0,2.737-0.084,3.543-0.251v-5.585
		c-0.278-0.084-0.681-0.167-1.209-0.25c-0.528-0.084-1.112-0.126-1.75-0.126c-0.556,0-1.119,0.042-1.688,0.126
		c-0.57,0.083-1.083,0.236-1.542,0.458c-0.459,0.223-0.828,0.535-1.105,0.938c-0.278,0.403-0.417,0.911-0.417,1.521
		c0,1.195,0.375,2.022,1.125,2.48C91.915,36.231,92.929,36.461,94.208,36.461z"/>
	<path fill="#FFFFFF" d="M108.797,18.911c0.973-0.277,2.237-0.542,3.793-0.792c1.556-0.25,3.279-0.375,5.169-0.375
		c1.778,0,3.265,0.243,4.46,0.729c1.194,0.486,2.146,1.167,2.855,2.043c0.709,0.875,1.209,1.932,1.501,3.168
		c0.292,1.236,0.438,2.591,0.438,4.063v12.256h-5.044V28.54c0-1.167-0.077-2.16-0.229-2.98c-0.153-0.819-0.403-1.486-0.75-2
		c-0.348-0.515-0.82-0.89-1.417-1.126c-0.598-0.235-1.328-0.354-2.188-0.354c-0.64,0-1.307,0.042-2.001,0.125
		c-0.695,0.084-1.209,0.153-1.542,0.209v17.591h-5.044V18.911z"/>
	<path fill="#FFFFFF" d="M138.81,11.825c0,0.945-0.307,1.695-0.918,2.251s-1.334,0.833-2.166,0.833c-0.863,0-1.6-0.277-2.211-0.833
		s-0.917-1.306-0.917-2.251c0-0.973,0.306-1.736,0.917-2.293c0.611-0.556,1.348-0.834,2.211-0.834c0.832,0,1.555,0.278,2.166,0.834
		C138.503,10.089,138.81,10.853,138.81,11.825z M138.267,40.004h-5.043V18.203h5.043V40.004z"/>
	<path fill="#FFFFFF" d="M143.478,29.124c0-1.611,0.25-3.119,0.75-4.522s1.216-2.619,2.146-3.647
		c0.932-1.028,2.063-1.834,3.397-2.418s2.835-0.875,4.502-0.875c2.057,0,4.002,0.375,5.836,1.125l-1.084,4.127
		c-0.583-0.25-1.244-0.459-1.979-0.625c-0.737-0.167-1.521-0.25-2.355-0.25c-1.974,0-3.474,0.618-4.502,1.854
		c-1.028,1.237-1.542,2.98-1.542,5.231c0,2.168,0.485,3.884,1.459,5.148c0.973,1.265,2.611,1.896,4.919,1.896
		c0.86,0,1.709-0.084,2.542-0.25c0.834-0.167,1.557-0.376,2.168-0.626l0.709,4.169c-0.557,0.278-1.396,0.528-2.522,0.75
		c-1.125,0.223-2.286,0.334-3.48,0.334c-1.862,0-3.48-0.285-4.856-0.854c-1.375-0.569-2.516-1.361-3.418-2.376
		c-0.903-1.015-1.577-2.224-2.021-3.627C143.699,32.285,143.478,30.764,143.478,29.124z"/>
	<path opacity="0.5" fill="#FFFFFF" d="M169.441,47.715h-2.709V19.203c0.806-0.277,1.834-0.542,3.085-0.792
		c1.25-0.25,2.834-0.375,4.752-0.375c1.584,0,3.021,0.257,4.314,0.771c1.292,0.514,2.403,1.257,3.334,2.229
		c0.931,0.974,1.653,2.154,2.168,3.543c0.514,1.391,0.771,2.96,0.771,4.711c0,1.64-0.216,3.146-0.646,4.522
		c-0.432,1.376-1.062,2.557-1.896,3.543c-0.834,0.987-1.855,1.758-3.064,2.313c-1.208,0.556-2.591,0.834-4.147,0.834
		c-1.417,0-2.646-0.202-3.688-0.604s-1.8-0.785-2.272-1.146V47.715z M169.441,36.127c0.251,0.194,0.563,0.403,0.938,0.625
		c0.375,0.223,0.812,0.432,1.312,0.626c0.501,0.194,1.043,0.354,1.626,0.479c0.584,0.126,1.194,0.188,1.834,0.188
		c1.334,0,2.452-0.229,3.355-0.688c0.903-0.458,1.633-1.084,2.188-1.876s0.959-1.723,1.209-2.792c0.25-1.07,0.375-2.202,0.375-3.397
		c0-2.835-0.708-5.009-2.126-6.523c-1.417-1.515-3.293-2.272-5.627-2.272c-1.334,0-2.411,0.062-3.23,0.188
		c-0.82,0.125-1.438,0.258-1.855,0.396V36.127z"/>
	<path opacity="0.5" fill="#FFFFFF" d="M198.37,18.036c0.89,0,1.73,0.069,2.522,0.208c0.792,0.14,1.34,0.278,1.646,0.417
		l-0.542,2.334c-0.223-0.11-0.674-0.229-1.354-0.354c-0.682-0.125-1.578-0.188-2.688-0.188c-1.168,0-2.105,0.083-2.814,0.25
		c-0.708,0.166-1.174,0.306-1.396,0.417v18.883h-2.709V19.453c0.694-0.306,1.653-0.618,2.876-0.938S196.62,18.036,198.37,18.036z"/>
	<path opacity="0.5" fill="#FFFFFF" d="M205.331,29.207c0-1.889,0.271-3.536,0.812-4.939c0.542-1.402,1.251-2.577,2.126-3.522
		c0.875-0.944,1.876-1.646,3.001-2.104c1.126-0.459,2.286-0.688,3.48-0.688c2.641,0,4.745,0.862,6.315,2.585
		c1.57,1.724,2.355,4.377,2.355,7.962c0,0.223-0.007,0.444-0.021,0.667c-0.015,0.223-0.035,0.431-0.062,0.625h-15.132
		c0.083,2.641,0.736,4.669,1.959,6.086s3.168,2.126,5.836,2.126c1.473,0,2.64-0.139,3.502-0.417c0.86-0.277,1.485-0.514,1.875-0.709
		l0.501,2.335c-0.39,0.223-1.119,0.486-2.188,0.792c-1.07,0.306-2.328,0.458-3.772,0.458c-1.891,0-3.502-0.278-4.836-0.833
		c-1.334-0.556-2.432-1.334-3.293-2.335c-0.861-1-1.487-2.188-1.876-3.563C205.524,32.354,205.331,30.848,205.331,29.207z
		 M220.629,27.498c-0.056-2.251-0.584-4.001-1.584-5.252s-2.418-1.876-4.252-1.876c-0.973,0-1.841,0.195-2.605,0.584
		c-0.765,0.39-1.432,0.91-2.001,1.562c-0.569,0.653-1.015,1.411-1.333,2.272c-0.32,0.861-0.508,1.765-0.563,2.709H220.629z"/>
	<path opacity="0.5" fill="#FFFFFF" d="M233.884,38.086c1.557,0,2.842-0.257,3.856-0.771c1.014-0.515,1.521-1.383,1.521-2.605
		c0-0.584-0.091-1.084-0.271-1.501s-0.479-0.792-0.896-1.125c-0.417-0.334-0.966-0.653-1.646-0.959
		c-0.682-0.306-1.521-0.667-2.522-1.084c-0.807-0.333-1.57-0.674-2.292-1.021c-0.724-0.347-1.362-0.75-1.918-1.209
		c-0.557-0.458-1-1.007-1.334-1.646c-0.333-0.639-0.5-1.417-0.5-2.334c0-1.751,0.659-3.168,1.979-4.252s3.133-1.626,5.44-1.626
		c1.473,0,2.688,0.126,3.647,0.376c0.958,0.25,1.632,0.473,2.021,0.667l-0.625,2.417c-0.334-0.166-0.896-0.389-1.688-0.667
		c-0.792-0.277-1.953-0.416-3.48-0.416c-0.612,0-1.188,0.062-1.73,0.188s-1.021,0.32-1.438,0.585s-0.751,0.599-1.001,1.003
		c-0.25,0.403-0.375,0.897-0.375,1.482s0.11,1.086,0.334,1.504c0.222,0.418,0.548,0.786,0.979,1.106
		c0.431,0.321,0.958,0.619,1.584,0.896c0.625,0.276,1.34,0.581,2.146,0.913c0.834,0.332,1.632,0.671,2.396,1.017
		s1.438,0.762,2.022,1.248c0.583,0.486,1.056,1.07,1.417,1.751c0.36,0.681,0.542,1.535,0.542,2.563c0,1.945-0.729,3.418-2.188,4.418
		c-1.459,1.001-3.453,1.501-5.982,1.501c-1.89,0-3.334-0.16-4.335-0.479c-1-0.319-1.667-0.562-2.001-0.729l0.709-2.459
		c0.083,0.056,0.264,0.146,0.542,0.271c0.277,0.125,0.652,0.265,1.125,0.417c0.473,0.153,1.035,0.285,1.688,0.396
		C232.265,38.031,233.022,38.086,233.884,38.086z"/>
	<path opacity="0.5" fill="#FFFFFF" d="M251.725,38.086c1.557,0,2.842-0.257,3.856-0.771c1.014-0.515,1.521-1.383,1.521-2.605
		c0-0.584-0.091-1.084-0.271-1.501s-0.479-0.792-0.896-1.125c-0.417-0.334-0.966-0.653-1.646-0.959
		c-0.682-0.306-1.521-0.667-2.522-1.084c-0.807-0.333-1.57-0.674-2.292-1.021c-0.724-0.347-1.362-0.75-1.918-1.209
		c-0.557-0.458-1-1.007-1.334-1.646c-0.333-0.639-0.5-1.417-0.5-2.334c0-1.751,0.659-3.168,1.979-4.252s3.133-1.626,5.44-1.626
		c1.473,0,2.688,0.126,3.647,0.376c0.958,0.25,1.632,0.473,2.021,0.667l-0.625,2.417c-0.334-0.166-0.896-0.389-1.688-0.667
		c-0.792-0.277-1.953-0.416-3.48-0.416c-0.612,0-1.188,0.062-1.73,0.188s-1.021,0.32-1.438,0.585s-0.751,0.599-1.001,1.003
		c-0.25,0.403-0.375,0.897-0.375,1.482s0.11,1.086,0.334,1.504c0.222,0.418,0.548,0.786,0.979,1.106
		c0.431,0.321,0.958,0.619,1.584,0.896c0.625,0.276,1.34,0.581,2.146,0.913c0.834,0.332,1.632,0.671,2.396,1.017
		s1.438,0.762,2.022,1.248c0.583,0.486,1.056,1.07,1.417,1.751c0.36,0.681,0.542,1.535,0.542,2.563c0,1.945-0.729,3.418-2.188,4.418
		c-1.459,1.001-3.453,1.501-5.982,1.501c-1.89,0-3.334-0.16-4.335-0.479c-1-0.319-1.667-0.562-2.001-0.729l0.709-2.459
		c0.083,0.056,0.264,0.146,0.542,0.271c0.277,0.125,0.652,0.265,1.125,0.417c0.473,0.153,1.035,0.285,1.688,0.396
		C250.105,38.031,250.863,38.086,251.725,38.086z"/>
</g>
</svg>
